#!OML:ASF F:\VICON\USERDATA\INSTALL\rory3\rory3.ASF
:FULLY-SPECIFIED
:DEGREES
1388
root 1.8011 17.6182 13.6967 -174.815 -6.86475 179.137
lowerback -1.21857 -0.607843 -3.05685
upperback -1.19911 -0.830007 2.5057
thorax -0.468937 -0.406291 4.29008
lowerneck -17.7043 6.56169 -7.1617
upperneck 36.7905 9.40921 0.45662
head 15.5549 1.87774 2.79385
rclavicle -2.3382e-014 3.49861e-014
rhumerus -35.9745 -9.35577 -78.0668
rradius 34.0441
rwrist 19.62
rhand -19.2322 1.4007
rfingers 7.12502
rthumb 7.08102 -28.4608
lclavicle -2.3382e-014 3.49861e-014
lhumerus -35.681 15.8177 82.0834
lradius 27.1605
lwrist -12.9153
lhand -9.91283 26.9385
lfingers 7.12502
lthumb 16.0676 56.2923
rfemur -14.1886 3.44045 21.8697
rtibia 34.1417
rfoot -22.9392 -3.89537
rtoes 10.2244
lfemur -6.59853 -0.96966 -22.8365
ltibia 22.356
lfoot -17.3872 -1.8193
ltoes -9.94639
1389
root 1.81523 17.621 13.6924 -174.73 -6.94098 179.108
lowerback -1.25192 -0.546402 -3.017
upperback -1.20628 -0.747161 2.47142
thorax -0.466483 -0.364892 4.23241
lowerneck -17.5456 6.98093 -7.00273
upperneck 37.0938 9.91438 0.51153
head 15.6421 2.0833 2.87089
rclavicle 7.45443e-016 -9.54166e-015
rhumerus -35.7378 -9.16566 -78.2244
rradius 34.4203
rwrist 19.8105
rhand -19.5558 1.53101
rfingers 7.12502
rthumb 6.76868 -28.3408
lclavicle 7.45443e-016 -9.54166e-015
lhumerus -35.1775 15.0493 82.4576
lradius 27.5769
lwrist -12.5292
lhand -10.3745 26.4312
lfingers 7.12502
lthumb 15.623 55.8204
rfemur -14.2729 3.45059 21.8927
rtibia 34.1503
rfoot -22.9866 -3.9514
rtoes 10.3462
lfemur -6.68263 -1.05312 -22.8159
ltibia 22.3351
lfoot -17.2982 -1.74688
ltoes -10.4812
1390
root 1.82802 17.6202 13.6847 -174.735 -6.98698 179.168
lowerback -1.25172 -0.488817 -2.93001
upperback -1.19351 -0.671596 2.48043
thorax -0.461449 -0.328157 4.19313
lowerneck -17.2435 7.47506 -6.76678
upperneck 37.2967 10.5182 0.493139
head 15.6538 2.3418 2.91099
rclavicle -2.33572e-015 2.46493e-014
rhumerus -35.5214 -8.95449 -78.3494
rradius 34.8313
rwrist 19.9555
rhand -19.774 1.79652
rfingers 7.12502
rthumb 6.55799 -28.0819
lclavicle -2.33572e-015 2.46493e-014
lhumerus -34.8233 14.3268 82.7789
lradius 28.1495
lwrist -12.1159
lhand -10.4576 26.3732
lfingers 7.12502
lthumb 15.543 55.7686
rfemur -14.2593 3.47926 22.0227
rtibia 34.1438
rfoot -23.0169 -4.02631
rtoes 10.2148
lfemur -6.67548 -1.14086 -22.7088
ltibia 22.3515
lfoot -17.2897 -1.68711
ltoes -10.8473
1391
root 1.84158 17.6193 13.6799 -174.671 -7.03603 179.124
lowerback -1.31649 -0.434274 -2.93548
upperback -1.1444 -0.596712 2.47923
thorax -0.381688 -0.292639 4.19488
lowerneck -17.111 7.96397 -6.61754
upperneck 37.518 11.17 0.5152
head 15.7051 2.61562 2.99984
rclavicle 1.02374e-014 2.54444e-014
rhumerus -35.2042 -8.77916 -78.4541
rradius 35.235
rwrist 19.9177
rhand -19.9235 1.79183
rfingers 7.12502
rthumb 6.41368 -28.0911
lclavicle 1.02374e-014 2.54444e-014
lhumerus -34.4872 13.8448 83.0706
lradius 28.7653
lwrist -11.9508
lhand -10.6184 26.2698
lfingers 7.12502
lthumb 15.3881 55.6771
rfemur -14.3027 3.56606 22.0389
rtibia 34.1399
rfoot -23.0662 -4.18833
rtoes 10.1061
lfemur -6.73541 -1.24811 -22.6988
ltibia 22.3729
lfoot -17.2504 -1.64627
ltoes -10.9591
1392
root 1.84933 17.6223 13.6797 -174.502 -7.04287 179.079
lowerback -1.49086 -0.387618 -2.83442
upperback -1.0899 -0.532116 2.46419
thorax -0.234901 -0.264647 4.12106
lowerneck -17.02 8.44504 -6.44899
upperneck 37.7634 11.8261 0.487909
head 15.7871 2.88186 3.06852
rclavicle -4.69629e-015 1.66979e-014
rhumerus -34.8268 -8.45688 -78.6084
rradius 35.6613
rwrist 19.7802
rhand -20.2521 1.55475
rfingers 7.12502
rthumb 6.0964 -28.3375
lclavicle -4.69629e-015 1.66979e-014
lhumerus -33.9883 13.4212 83.3616
lradius 29.2604
lwrist -11.8381
lhand -10.9895 26.1241
lfingers 7.12502
lthumb 15.0306 55.5585
rfemur -14.4985 3.51532 22.0073
rtibia 34.14
rfoot -22.9812 -4.1648
rtoes 10.293
lfemur -6.9341 -1.36123 -22.7194
ltibia 22.3947
lfoot -17.1624 -1.55837
ltoes -10.4944
1393
root 1.85674 17.6249 13.6781 -174.428 -6.99934 179.063
lowerback -1.5426 -0.338706 -2.68075
upperback -1.0617 -0.466468 2.40231
thorax -0.184406 -0.233554 3.9702
lowerneck -16.8167 8.97241 -6.1963
upperneck 38.0596 12.4665 0.541462
head 15.8676 3.15911 3.14906
rclavicle 4.72114e-015 -2.46493e-014
rhumerus -34.5905 -8.18792 -78.8329
rradius 36.1552
rwrist 19.745
rhand -20.4972 1.43765
rfingers 7.12502
rthumb 5.85979 -28.4613
lclavicle 4.72114e-015 -2.46493e-014
lhumerus -33.7365 12.8087 83.5496
lradius 29.95
lwrist -11.4279
lhand -11.3518 26.239
lfingers 7.12502
lthumb 14.6816 55.6992
rfemur -14.6037 3.4859 22.0067
rtibia 34.1646
rfoot -22.9457 -4.09909
rtoes 10.4236
lfemur -7.01295 -1.34455 -22.7167
ltibia 22.3736
lfoot -17.0357 -1.48751
ltoes -10.4086
1394
root 1.87482 17.624 13.6724 -174.609 -6.94732 179.078
lowerback -1.33347 -0.230508 -2.62596
upperback -0.992888 -0.322903 2.35437
thorax -0.244099 -0.160399 3.89224
lowerneck -16.5587 9.47256 -5.93866
upperneck 38.3956 13.0341 0.645947
head 15.9555 3.41041 3.23587
rclavicle 1.3418e-015 -1.82882e-014
rhumerus -34.4296 -8.05809 -78.9679
rradius 36.5934
rwrist 19.6516
rhand -20.4405 1.47955
rfingers 7.12502
rthumb 5.91455 -28.4179
lclavicle 1.3418e-015 -1.82882e-014
lhumerus -33.5275 12.1479 83.7024
lradius 30.6439
lwrist -10.9577
lhand -11.7341 26.1784
lfingers 7.12502
lthumb 14.3132 55.665
rfemur -14.385 3.68071 22.115
rtibia 34.1686
rfoot -23.042 -4.30005
rtoes 10.1442
lfemur -6.78358 -1.37881 -22.6412
ltibia 22.3667
lfoot -17.0549 -1.42254
ltoes -11.1637
1395
root 1.89143 17.6239 13.6664 -174.726 -6.84326 178.985
lowerback -1.1919 -0.100652 -2.71585
upperback -0.867923 -0.147465 2.33435
thorax -0.210295 -0.0728503 3.92447
lowerneck -16.3578 9.90398 -5.79406
upperneck 38.6172 13.5881 0.678492
head 16.0013 3.64501 3.30919
rclavicle 1.24737e-014 0
rhumerus -34.0876 -7.89948 -79.021
rradius 36.9736
rwrist 19.3976
rhand -20.3782 1.57037
rfingers 7.12502
rthumb 5.97471 -28.3254
lclavicle 1.24737e-014 0
lhumerus -33.0176 11.6681 83.9419
lradius 31.1837
lwrist -10.6005
lhand -11.9634 26.2293
lfingers 7.12502
lthumb 14.0923 55.7314
rfemur -14.225 3.85719 22.0826
rtibia 34.147
rfoot -23.0673 -4.38092
rtoes 10.0707
lfemur -6.60405 -1.51666 -22.7153
ltibia 22.3873
lfoot -17.1342 -1.17948
ltoes -12.264
1396
root 1.90362 17.6249 13.6617 -174.666 -6.78458 178.931
lowerback -1.21847 -0.00799499 -2.69934
upperback -0.798696 -0.0212741 2.28672
thorax -0.135385 -0.0112287 3.86699
lowerneck -16.2035 10.3347 -5.69121
upperneck 38.8956 14.1137 0.834262
head 16.0696 3.87462 3.44034
rclavicle -1.78409e-014 9.54166e-015
rhumerus -33.8358 -7.84648 -79.1109
rradius 37.4444
rwrist 19.2593
rhand -20.2808 1.76823
rfingers 7.12502
rthumb 6.06874 -28.1248
lclavicle -1.78409e-014 9.54166e-015
lhumerus -32.4703 11.23 84.0975
lradius 31.6848
lwrist -10.3963
lhand -11.851 26.5048
lfingers 7.12502
lthumb 14.2006 55.9994
rfemur -14.2647 3.8628 22.0636
rtibia 34.0981
rfoot -23.0452 -4.31855
rtoes 10.3018
lfemur -6.67683 -1.4671 -22.7584
ltibia 22.4519
lfoot -17.152 -1.0456
ltoes -12.0352
1397
root 1.91637 17.6261 13.6521 -174.573 -6.70245 178.996
lowerback -1.30999 0.089251 -2.58896
upperback -0.790099 0.108881 2.25532
thorax -0.0861806 0.0524281 3.77353
lowerneck -16.0479 10.8209 -5.60879
upperneck 39.3251 14.6727 1.10159
head 16.1963 4.11045 3.63031
rclavicle 4.67144e-015 -1.98785e-014
rhumerus -33.7758 -7.7419 -79.2164
rradius 37.9972
rwrist 18.9805
rhand -20.1601 1.77504
rfingers 7.12502
rthumb 6.18524 -28.1147
lclavicle 4.67144e-015 -1.98785e-014
lhumerus -32.0532 10.8596 84.1481
lradius 32.1534
lwrist -10.2788
lhand -11.8624 26.6018
lfingers 7.12502
lthumb 14.1896 56.0972
rfemur -14.3248 3.82922 22.1725
rtibia 34.0136
rfoot -22.9513 -4.23684
rtoes 10.4119
lfemur -6.81922 -1.31676 -22.6511
ltibia 22.5859
lfoot -17.2394 -1.04907
ltoes -11.6042
1398
root 1.92956 17.6308 13.6452 -174.509 -6.6355 179.037
lowerback -1.39089 0.167571 -2.51033
upperback -0.704422 0.2137 2.26691
thorax 0.038549 0.101338 3.74269
lowerneck -15.97 11.2525 -5.60892
upperneck 39.6215 15.2563 1.23271
head 16.2829 4.34017 3.7819
rclavicle -1.83876e-015 4.77083e-015
rhumerus -33.5748 -7.56218 -79.2925
rradius 38.5583
rwrist 18.6484
rhand -20.2417 1.66302
rfingers 7.12502
rthumb 6.10643 -28.229
lclavicle -1.83876e-015 4.77083e-015
lhumerus -31.6128 10.5944 84.2712
lradius 32.6883
lwrist -10.0151
lhand -12.5789 25.5347
lfingers 7.12502
lthumb 13.4991 55.0772
rfemur -14.3492 3.77699 22.2506
rtibia 33.9166
rfoot -22.8587 -4.18266
rtoes 10.2588
lfemur -6.94805 -1.24228 -22.5667
ltibia 22.7591
lfoot -17.3039 -1.03878
ltoes -11.2937
1399
root 1.94705 17.6364 13.646 -174.432 -6.69795 179.077
lowerback -1.36411 0.222104 -2.42266
upperback -0.653296 0.285956 2.24112
thorax 0.0706443 0.136483 3.66735
lowerneck -15.8716 11.6181 -5.45257
upperneck 39.8603 15.7178 1.29374
head 16.3676 4.53956 3.85971
rclavicle -6.16232e-015 3.97569e-015
rhumerus -33.3446 -7.51494 -79.41
rradius 39.015
rwrist 18.3779
rhand -20.633 1.83115
rfingers 7.12502
rthumb 5.72865 -28.0714
lclavicle -6.16232e-015 3.97569e-015
lhumerus -31.342 10.0483 84.4033
lradius 33.4441
lwrist -9.5643
lhand -14.1082 23.3771
lfingers 7.12502
lthumb 12.0248 53.0117
rfemur -14.4112 3.83321 22.36
rtibia 33.8457
rfoot -22.8832 -4.28726
rtoes 10.5468
lfemur -7.12888 -1.17076 -22.4469
ltibia 22.9169
lfoot -17.346 -1.13614
ltoes -10.9014
1400
root 1.95634 17.6413 13.6473 -174.22 -6.73644 179.075
lowerback -1.4171 0.272322 -2.26121
upperback -0.653396 0.352181 2.1874
thorax 0.0963331 0.168945 3.52163
lowerneck -15.788 11.9719 -5.40547
upperneck 40.0952 16.1809 1.40226
head 16.4356 4.73106 3.97394
rclavicle 3.62782e-015 -2.38542e-014
rhumerus -33.1276 -7.27037 -79.5181
rradius 39.4393
rwrist 17.9766
rhand -20.9311 1.99356
rfingers 7.12502
rthumb 5.44086 -27.9166
lclavicle 3.62782e-015 -2.38542e-014
lhumerus -31.0828 9.62257 84.4957
lradius 34.1461
lwrist -9.16247
lhand -14.6405 22.987
lfingers 7.12502
lthumb 11.5114 52.651
rfemur -14.668 3.81255 22.371
rtibia 33.8247
rfoot -22.8175 -4.29916
rtoes 10.5329
lfemur -7.47093 -1.25892 -22.4273
ltibia 23.0626
lfoot -17.2838 -0.933198
ltoes -11.3184
1401
root 1.95745 17.6418 13.6475 -173.96 -6.7655 179.069
lowerback -1.56113 0.342474 -1.9834
upperback -0.694815 0.444224 2.08499
thorax 0.130615 0.214275 3.261
lowerneck -15.421 12.3299 -5.28769
upperneck 40.1486 16.6153 1.43055
head 16.3604 4.93687 4.00643
rclavicle 8.44835e-016 3.89618e-014
rhumerus -33.0565 -7.11267 -79.6008
rradius 39.874
rwrist 17.6835
rhand -21.0711 1.98519
rfingers 7.12502
rthumb 5.30568 -27.9284
lclavicle 8.44835e-016 3.89618e-014
lhumerus -30.7806 9.37951 84.4969
lradius 34.676
lwrist -8.92155
lhand -14.0916 24.4836
lfingers 7.12502
lthumb 12.0407 54.1172
rfemur -14.9906 3.56886 22.3424
rtibia 33.8294
rfoot -22.6695 -4.15536
rtoes 10.3235
lfemur -7.87478 -1.54543 -22.4422
ltibia 23.211
lfoot -17.0686 -0.680112
ltoes -11.599
